#!OML:ASF I:\Actors\actors\Patient Classification 1\Patient 1\Session 1\Subject1.ASF
:FULLY-SPECIFIED
:DEGREES
136
root -0.698747 17.6732 7.68448 13.4356 -4.83127 -8.4354
lowerback 9.6026 -0.203242 3.99935
upperback -6.99632 0.571864 1.98304
thorax -13.0714 0.0214334 -0.186512
lowerneck -14.5082 2.89296 4.30021
upperneck 28.5505 3.95609 -3.29739
head 11.9161 1.81031 -1.40057
rclavicle -5.05658e-015 1.47101e-014
rhumerus 14.734 21.0954 -79.5166
rradius 69.6096
rwrist -37.5388
rhand -17.0581 -58.4941
rfingers 7.12502
rthumb 9.17928 -88.2743
lclavicle -5.05658e-015 1.47101e-014
lhumerus 43.7535 -54.4632 66.4059
lradius 51.9415
lwrist 49.5572
lhand -54.4631 -7.33501
lfingers 7.12502
lthumb -26.8665 20.776
rfemur -9.55094 24.9632 24.6333
rtibia 2.61998
rfoot -8.90156 -19.6939
rtoes 2.21853
lfemur -5.23083 -25.975 -5.30857
ltibia 0.74975
lfoot -14.116 39.5666
ltoes 1.298
137
root -0.678044 17.6741 7.71737 13.2695 -4.90887 -8.07985
lowerback 9.34623 -0.359814 3.5417
upperback -7.12494 0.256534 1.79637
thorax -13.0679 -0.0985489 -0.0693318
lowerneck -14.1488 3.08729 4.38963
upperneck 29.3179 4.17917 -3.07072
head 12.1544 1.94935 -1.30728
rclavicle -9.67833e-015 9.93923e-015
rhumerus 18.2134 18.9624 -76.8318
rradius 73.3721
rwrist -35.4504
rhand -17.3896 -58.3611
rfingers 7.12502
rthumb 8.85942 -88.1552
lclavicle -9.67833e-015 9.93923e-015
lhumerus 48.5897 -52.6017 63.8277
lradius 54.8044
lwrist 46.0728
lhand -54.0427 -9.8037
lfingers 7.12502
lthumb -26.4642 18.3685
rfemur -9.28448 24.7977 24.2598
rtibia 2.63329
rfoot -9.00692 -19.6028
rtoes 1.97425
lfemur -4.91047 -26.0607 -6.01297
ltibia 0.773584
lfoot -14.2684 39.5202
ltoes 1.29149
138
root -0.659533 17.6758 7.75233 13.1439 -4.95536 -7.82098
lowerback 9.16007 -0.513424 3.20321
upperback -7.27941 -0.0291302 1.62221
thorax -13.1365 -0.215373 -0.0112037
lowerneck -13.8314 3.27875 4.47496
upperneck 30.0249 4.39922 -2.85523
head 12.3807 2.0849 -1.21579
rclavicle -4.83295e-015 5.00937e-014
rhumerus 21.4689 16.532 -74.4487
rradius 77.3138
rwrist -33.1109
rhand -17.9338 -57.7668
rfingers 7.12502
rthumb 8.33419 -87.5824
lclavicle -4.83295e-015 5.00937e-014
lhumerus 53.0113 -50.7742 61.7689
lradius 57.8397
lwrist 42.4783
lhand -53.5562 -12.1613
lfingers 7.12502
lthumb -25.9984 16.0802
rfemur -9.05054 24.6728 23.992
rtibia 2.64904
rfoot -9.11713 -19.5597
rtoes 1.80673
lfemur -4.67236 -26.0843 -6.55144
ltibia 0.856862
lfoot -14.4078 39.419
ltoes 1.25285
139
root -0.644241 17.6784 7.7902 13.0632 -4.93196 -7.66061
lowerback 9.02261 -0.678439 2.9723
upperback -7.4564 -0.308141 1.47099
thorax -13.2622 -0.33786 0.0109131
lowerneck -13.5692 3.46867 4.57213
upperneck 30.6744 4.61792 -2.66482
head 12.5992 2.21755 -1.13377
rclavicle -1.29396e-014 -2.8625e-014
rhumerus 24.522 13.8707 -72.37
rradius 81.2844
rwrist -30.3374
rhand -18.1946 -57.193
rfingers 7.12502
rthumb 8.08251 -87.0184
lclavicle -1.29396e-014 -2.8625e-014
lhumerus 57.1618 -49.072 60.0354
lradius 61.021
lwrist 39.0245
lhand -53.1225 -14.3703
lfingers 7.12502
lthumb -25.5831 13.9315
rfemur -8.83467 24.5696 23.8454
rtibia 2.6539
rfoot -9.23783 -19.5749
rtoes 1.73095
lfemur -4.51527 -26.0514 -6.91606
ltibia 0.970399
lfoot -14.4907 39.2559
ltoes 1.1412
140
root -0.632757 17.6819 7.83086 13.0283 -4.8131 -7.57193
lowerback 8.90767 -0.865315 2.78536
upperback -7.64282 -0.604603 1.36056
thorax -13.4137 -0.470036 0.0570963
lowerneck -13.3621 3.65763 4.69058
upperneck 31.2389 4.84446 -2.53468
head 12.8 2.34797 -1.07507
rclavicle -5.38854e-015 2.38542e-015
rhumerus 27.4663 11.1647 -70.4856
rradius 85.3666
rwrist -27.7675
rhand -18.7212 -56.7585
rfingers 7.12502
rthumb 7.57423 -86.6029
lclavicle -5.38854e-015 2.38542e-015
lhumerus 61.1565 -47.5103 58.4921
lradius 64.2835
lwrist 35.8046
lhand -52.7027 -16.3072
lfingers 7.12502
lthumb -25.1809 12.0517
rfemur -8.63253 24.4735 23.7944
rtibia 2.63998
rfoot -9.37624 -19.6602
rtoes 1.74201
lfemur -4.43708 -25.9923 -7.13449
ltibia 1.08818
lfoot -14.4959 39.0433
ltoes 0.924168
